<svg width="1470" height="371" viewBox="0 0 1470 371" fill="none" xmlns="http://www.w3.org/2000/svg">
<path d="M504.41 229.997C507.21 229.664 510.21 229.431 513.41 229.297C516.677 229.097 520.11 228.997 523.71 228.997C528.043 228.997 531.91 229.531 535.31 230.597C538.71 231.664 541.577 233.131 543.91 234.997C546.243 236.864 548.01 239.131 549.21 241.797C550.41 244.397 551.01 247.231 551.01 250.297C551.01 254.031 550.277 257.364 548.81 260.297C547.41 263.164 545.41 265.597 542.81 267.597C540.277 269.597 537.21 271.131 533.61 272.197C530.01 273.197 526.043 273.697 521.71 273.697C518.91 273.697 516.31 273.597 513.91 273.397V299.797H504.41V229.997ZM522.91 265.797C528.91 265.797 533.51 264.497 536.71 261.897C539.977 259.231 541.61 255.631 541.61 251.097C541.61 246.764 540.043 243.331 536.91 240.797C533.843 238.264 529.377 236.997 523.51 236.997C521.71 236.997 520.01 237.031 518.41 237.097C516.81 237.164 515.31 237.264 513.91 237.397V265.297C514.977 265.431 516.243 265.564 517.71 265.697C519.243 265.764 520.977 265.797 522.91 265.797ZM644.116 299.797H602.516V229.797H612.016V291.297H644.116V299.797ZM685.59 297.297L712.99 229.797H723.39L750.39 297.297L741.69 300.797L733.89 280.797H701.49L693.69 300.597L685.59 297.297ZM704.49 272.797H730.79L717.69 239.197L704.49 272.797ZM809.387 241.997V299.797H800.387V229.797H812.987L843.887 287.997V229.797H852.887V299.797H840.487L809.387 241.997ZM919.895 241.997V299.797H910.895V229.797H923.495L954.395 287.997V229.797H963.395V299.797H950.995L919.895 241.997ZM1021.4 229.797H1063.4V237.997H1030.9V259.297H1058.9V267.297H1030.9V291.597H1063.4V299.797H1021.4V229.797ZM1157.67 300.997L1148.97 281.997C1146.77 277.264 1144 273.897 1140.67 271.897C1137.34 269.897 1133.07 268.897 1127.87 268.897H1126.37V299.797H1116.87V229.997C1120.47 229.664 1123.84 229.431 1126.97 229.297C1130.17 229.097 1133.64 228.997 1137.37 228.997C1141.64 228.997 1145.37 229.464 1148.57 230.397C1151.77 231.264 1154.44 232.531 1156.57 234.197C1158.7 235.864 1160.3 237.831 1161.37 240.097C1162.5 242.364 1163.07 244.864 1163.07 247.597C1163.07 252.464 1161.6 256.397 1158.67 259.397C1155.8 262.331 1151.64 264.531 1146.17 265.997C1147.5 266.597 1148.74 267.297 1149.87 268.097C1151 268.831 1152.07 269.764 1153.07 270.897C1154.07 271.964 1155.04 273.264 1155.97 274.797C1156.97 276.331 1157.97 278.197 1158.97 280.397L1166.57 296.797L1157.67 300.997ZM1137.37 236.997C1135.1 236.997 1133.07 237.031 1131.27 237.097C1129.47 237.164 1127.84 237.264 1126.37 237.397V260.897H1137.37C1142.17 260.897 1146.07 259.831 1149.07 257.697C1152.07 255.564 1153.57 252.497 1153.57 248.497C1153.57 245.164 1152.17 242.431 1149.37 240.297C1146.57 238.097 1142.57 236.997 1137.37 236.997Z" fill="white"/>
<path d="M493.031 210.261V195.222L508.461 192.292V86.1396L493.031 83.21V68.0732H543.715L585.414 170.905H586L626.43 68.0732H677.699V83.21L662.172 86.1396V192.292L677.699 195.222V210.261H622.133V195.222L638.441 192.292V159.187L638.637 96.9795L638.148 96.8818L594.105 207.038H576.234L530.922 97.4678L530.434 97.5654L531.703 157.526V192.292L548.598 195.222V210.261H493.031ZM704.883 210.261V195.222L720.41 192.292V86.1396L704.883 83.21V68.0732H813.184V104.694H794.043L792.383 87.0186H745.02V127.253H794.922V146.296H745.02V191.511H795.02L796.68 173.444H815.625V210.261H704.883ZM845.348 210.261V195.222L855.699 193.757L902.77 68.0732H926.695L973.18 193.757L983.531 195.222V210.261H938.316V195.222L948.473 193.366L940.953 171.003H888.023L880.309 193.366L890.562 195.222V210.261H845.348ZM894.469 152.058H934.605L916.148 99.5186L914.879 95.71H914.293L912.926 99.7139L894.469 152.058ZM1009.25 210.261V195.222L1024.78 192.292V86.1396L1009.25 83.21V68.0732H1066.09V83.21L1049.39 86.1396V191.413H1093.82L1095.48 169.831H1114.33V210.261H1009.25Z" fill="white"/>
<path d="M40.672 140.851H13.888L8.344 153.451H0.928L23.752 103.051H30.88L53.776 153.451H46.216L40.672 140.851ZM38.152 135.091L27.28 110.395L16.408 135.091H38.152ZM83.1273 154.027C78.0873 154.027 73.5273 152.923 69.4473 150.715C65.4153 148.459 62.2473 145.387 59.9433 141.499C57.6393 137.563 56.4873 133.147 56.4873 128.251C56.4873 123.355 57.6393 118.963 59.9433 115.075C62.2473 111.139 65.4393 108.067 69.5193 105.859C73.5993 103.603 78.1593 102.475 83.1993 102.475C87.1353 102.475 90.7353 103.147 93.9993 104.491C97.2633 105.787 100.047 107.731 102.351 110.323L97.6713 114.859C93.8793 110.875 89.1513 108.883 83.4873 108.883C79.7433 108.883 76.3593 109.723 73.3353 111.403C70.3113 113.083 67.9353 115.411 66.2073 118.387C64.5273 121.315 63.6873 124.603 63.6873 128.251C63.6873 131.899 64.5273 135.211 66.2073 138.187C67.9353 141.115 70.3113 143.419 73.3353 145.099C76.3593 146.779 79.7433 147.619 83.4873 147.619C89.1033 147.619 93.8313 145.603 97.6713 141.571L102.351 146.107C100.047 148.699 97.2393 150.667 93.9273 152.011C90.6633 153.355 87.0633 154.027 83.1273 154.027ZM149.199 147.187V153.451H112.623V103.051H148.191V109.315H119.823V124.795H145.095V130.915H119.823V147.187H149.199ZM194.553 153.451L183.681 137.971C182.337 138.067 181.281 138.115 180.513 138.115H168.057V153.451H160.857V103.051H180.513C187.041 103.051 192.177 104.611 195.921 107.731C199.665 110.851 201.537 115.147 201.537 120.619C201.537 124.507 200.577 127.819 198.657 130.555C196.737 133.291 194.001 135.283 190.449 136.531L202.401 153.451H194.553ZM180.297 131.995C184.857 131.995 188.337 131.011 190.737 129.043C193.137 127.075 194.337 124.267 194.337 120.619C194.337 116.971 193.137 114.187 190.737 112.267C188.337 110.299 184.857 109.315 180.297 109.315H168.057V131.995H180.297ZM235.705 154.027C230.665 154.027 226.105 152.923 222.025 150.715C217.993 148.459 214.825 145.387 212.521 141.499C210.217 137.563 209.065 133.147 209.065 128.251C209.065 123.355 210.217 118.963 212.521 115.075C214.825 111.139 218.017 108.067 222.097 105.859C226.177 103.603 230.737 102.475 235.777 102.475C239.713 102.475 243.313 103.147 246.577 104.491C249.841 105.787 252.625 107.731 254.929 110.323L250.249 114.859C246.457 110.875 241.729 108.883 236.065 108.883C232.321 108.883 228.937 109.723 225.913 111.403C222.889 113.083 220.513 115.411 218.785 118.387C217.105 121.315 216.265 124.603 216.265 128.251C216.265 131.899 217.105 135.211 218.785 138.187C220.513 141.115 222.889 143.419 225.913 145.099C228.937 146.779 232.321 147.619 236.065 147.619C241.681 147.619 246.409 145.603 250.249 141.571L254.929 146.107C252.625 148.699 249.817 150.667 246.505 152.011C243.241 153.355 239.641 154.027 235.705 154.027ZM296.117 140.851H269.333L263.789 153.451H256.373L279.197 103.051H286.325L309.221 153.451H301.661L296.117 140.851ZM293.597 135.091L282.725 110.395L271.853 135.091H293.597ZM336.076 103.051H357.316C362.644 103.051 367.372 104.107 371.5 106.219C375.628 108.331 378.82 111.307 381.076 115.147C383.38 118.939 384.532 123.307 384.532 128.251C384.532 133.195 383.38 137.587 381.076 141.427C378.82 145.219 375.628 148.171 371.5 150.283C367.372 152.395 362.644 153.451 357.316 153.451H336.076V103.051ZM356.884 147.187C360.964 147.187 364.54 146.395 367.612 144.811C370.732 143.227 373.132 141.019 374.812 138.187C376.492 135.307 377.332 131.995 377.332 128.251C377.332 124.507 376.492 121.219 374.812 118.387C373.132 115.507 370.732 113.275 367.612 111.691C364.54 110.107 360.964 109.315 356.884 109.315H343.276V147.187H356.884ZM432.136 147.187V153.451H395.56V103.051H431.128V109.315H402.76V124.795H428.032V130.915H402.76V147.187H432.136Z" fill="white"/>
</svg>
