<svg width="1233" height="153" viewBox="0 0 1233 153" fill="none" xmlns="http://www.w3.org/2000/svg">
<path d="M36.377 106.025C29.3457 106.025 23.3561 104.544 18.4082 101.582C13.4603 98.5872 9.66797 94.4206 7.03125 89.082C4.42708 83.7109 3.125 77.4772 3.125 70.3809V68.5742C3.125 61.6732 4.42708 55.5371 7.03125 50.166C9.63542 44.7949 13.3626 40.5794 18.2129 37.5195C23.0632 34.4271 28.8574 32.8809 35.5957 32.8809C40.3158 32.8809 44.694 33.5807 48.7305 34.9805C52.7669 36.3802 56.2826 38.3496 59.2773 40.8887V57.2949H49.9023L48.6328 46.3086C47.0378 45.1367 45.166 44.2253 43.0176 43.5742C40.8691 42.9232 38.444 42.5977 35.7422 42.5977C31.4779 42.5977 27.832 43.6719 24.8047 45.8203C21.7773 47.9688 19.4499 50.9798 17.8223 54.8535C16.2272 58.7272 15.4297 63.2682 15.4297 68.4766V70.3809C15.4297 78.4863 17.3014 84.8503 21.0449 89.4727C24.7884 94.0951 29.9967 96.4062 36.6699 96.4062C38.8184 96.4062 40.9342 96.1621 43.0176 95.6738C45.1335 95.153 46.9889 94.4857 48.584 93.6719L49.9023 83.7109H59.1797V100.02C56.4779 101.81 53.1413 103.258 49.1699 104.365C45.1986 105.472 40.9342 106.025 36.377 106.025ZM73.4551 105V97.4805L78.6309 96.748L102.166 33.9062H114.129L137.371 96.748L142.547 97.4805V105H119.939V97.4805L125.018 96.5527L121.258 85.3711H94.793L90.9355 96.5527L96.0625 97.4805V105H73.4551ZM98.0156 75.8984H118.084L108.855 49.6289L108.221 47.7246H107.928L107.244 49.7266L98.0156 75.8984ZM155.406 105V97.4805L163.17 96.0156V42.9395L155.406 41.4746V33.9062H183.824V41.4746L175.475 42.9395V95.5762H197.691L198.521 84.7852H207.945V105H155.406ZM221.195 105V97.4805L228.959 96.0156V42.9395L221.195 41.4746V33.9062H275.346V52.2168H265.775L264.945 43.3789H241.264V63.4961H266.215V73.0176H241.264V95.625H266.264L267.094 86.5918H276.566V105H221.195ZM292.111 105V97.4805L299.875 96.0156V42.9395L292.111 41.4746V33.9062H312.326L344.943 85.7617L345.236 85.7129V42.9395L336.252 41.4746V33.9062H364.084V41.4746L356.32 42.9395V105H344.65L311.252 53.291L310.959 53.3398V96.0156L319.943 97.4805V105H292.111ZM377.188 105V97.4805L385 95.9668V43.0371L377.188 41.4746V33.9062H406.973C413.288 33.9062 418.838 35.4036 423.623 38.3984C428.408 41.3932 432.135 45.5111 434.805 50.752C437.474 55.9928 438.809 61.9987 438.809 68.7695V70.1855C438.809 76.8587 437.49 82.832 434.854 88.1055C432.249 93.3464 428.587 97.4805 423.867 100.508C419.147 103.503 413.63 105 407.314 105H377.188ZM397.305 95.5273H406.68C410.846 95.5273 414.395 94.4206 417.324 92.207C420.286 89.9609 422.549 86.9336 424.111 83.125C425.674 79.2839 426.455 74.9707 426.455 70.1855V68.7207C426.455 63.8379 425.674 59.4922 424.111 55.6836C422.549 51.875 420.286 48.8802 417.324 46.6992C414.395 44.5182 410.846 43.4277 406.68 43.4277H397.305V95.5273ZM448.689 105V97.4805L453.865 96.748L477.4 33.9062H489.363L512.605 96.748L517.781 97.4805V105H495.174V97.4805L500.252 96.5527L496.492 85.3711H470.027L466.17 96.5527L471.297 97.4805V105H448.689ZM473.25 75.8984H493.318L484.09 49.6289L483.455 47.7246H483.162L482.479 49.7266L473.25 75.8984ZM530.641 105V97.4805L538.404 96.0156V42.9395L530.641 41.4746V33.9062H563.502C571.51 33.9062 577.727 35.7292 582.154 39.375C586.581 42.9883 588.795 48.0339 588.795 54.5117C588.795 58.9714 587.656 62.8288 585.377 66.084C583.131 69.3066 580.038 71.6992 576.1 73.2617L586.354 96.2109L591.92 97.3828V105H576.881L564.576 75.2637L550.709 75.4102V96.0156L558.473 97.4805V105H530.641ZM550.709 65.8398H562.965C567.587 65.8398 571.005 64.9121 573.219 63.0566C575.432 61.1686 576.539 58.4342 576.539 54.8535C576.539 51.3704 575.449 48.6035 573.268 46.5527C571.119 44.4694 567.864 43.4277 563.502 43.4277H550.709V65.8398ZM605.902 105V97.4805L613.666 96.0156V42.9395L605.902 41.4746V33.9062H633.686V41.4746L625.971 42.9395V96.0156L633.686 97.4805V105H605.902ZM678.283 106.025C672.001 106.025 666.532 104.479 661.877 101.387C657.222 98.2943 653.609 94.0462 651.037 88.6426C648.498 83.2064 647.229 76.9889 647.229 69.9902V68.916C647.229 61.9499 648.498 55.765 651.037 50.3613C653.609 44.9251 657.206 40.6608 661.828 37.5684C666.483 34.4434 671.952 32.8809 678.234 32.8809C684.68 32.8809 690.23 34.4434 694.885 37.5684C699.572 40.6608 703.169 44.9251 705.676 50.3613C708.182 55.765 709.436 61.9499 709.436 68.916V69.9902C709.436 76.9889 708.182 83.2064 705.676 88.6426C703.169 94.0462 699.589 98.2943 694.934 101.387C690.279 104.479 684.729 106.025 678.283 106.025ZM678.283 96.2598C682.58 96.2598 686.112 95.1693 688.879 92.9883C691.678 90.7747 693.745 87.6986 695.08 83.7598C696.447 79.821 697.131 75.2311 697.131 69.9902V68.8184C697.131 63.6751 696.447 59.1504 695.08 55.2441C693.713 51.3053 691.63 48.2292 688.83 46.0156C686.031 43.8021 682.499 42.6953 678.234 42.6953C674.133 42.6953 670.699 43.8021 667.932 46.0156C665.165 48.1966 663.081 51.2565 661.682 55.1953C660.282 59.1016 659.582 63.6426 659.582 68.8184V69.9902C659.582 75.1986 660.282 79.7884 661.682 83.7598C663.081 87.6986 665.165 90.7747 667.932 92.9883C670.731 95.1693 674.182 96.2598 678.283 96.2598Z" fill="white"/>
<path d="M754.56 49.6H775.8C781.128 49.6 785.856 50.656 789.984 52.768C794.112 54.88 797.304 57.856 799.56 61.696C801.864 65.488 803.016 69.856 803.016 74.8C803.016 79.744 801.864 84.136 799.56 87.976C797.304 91.768 794.112 94.72 789.984 96.832C785.856 98.944 781.128 100 775.8 100H754.56V49.6ZM775.368 93.736C779.448 93.736 783.024 92.944 786.096 91.36C789.216 89.776 791.616 87.568 793.296 84.736C794.976 81.856 795.816 78.544 795.816 74.8C795.816 71.056 794.976 67.768 793.296 64.936C791.616 62.056 789.216 59.824 786.096 58.24C783.024 56.656 779.448 55.864 775.368 55.864H761.76V93.736H775.368ZM850.62 93.736V100H814.044V49.6H849.612V55.864H821.244V71.344H846.516V77.464H821.244V93.736H850.62ZM904.151 100.576C899.111 100.576 894.551 99.472 890.471 97.264C886.439 95.008 883.271 91.936 880.967 88.048C878.663 84.112 877.511 79.696 877.511 74.8C877.511 69.904 878.663 65.512 880.967 61.624C883.271 57.688 886.463 54.616 890.543 52.408C894.623 50.152 899.183 49.024 904.223 49.024C908.159 49.024 911.759 49.696 915.023 51.04C918.287 52.336 921.071 54.28 923.375 56.872L918.695 61.408C914.903 57.424 910.175 55.432 904.511 55.432C900.767 55.432 897.383 56.272 894.359 57.952C891.335 59.632 888.959 61.96 887.231 64.936C885.551 67.864 884.711 71.152 884.711 74.8C884.711 78.448 885.551 81.76 887.231 84.736C888.959 87.664 891.335 89.968 894.359 91.648C897.383 93.328 900.767 94.168 904.511 94.168C910.127 94.168 914.855 92.152 918.695 88.12L923.375 92.656C921.071 95.248 918.263 97.216 914.951 98.56C911.687 99.904 908.087 100.576 904.151 100.576ZM955.343 100.576C950.255 100.576 945.671 99.472 941.591 97.264C937.511 95.008 934.295 91.912 931.943 87.976C929.639 84.04 928.487 79.648 928.487 74.8C928.487 69.952 929.639 65.56 931.943 61.624C934.295 57.688 937.511 54.616 941.591 52.408C945.671 50.152 950.255 49.024 955.343 49.024C960.383 49.024 964.943 50.152 969.023 52.408C973.103 54.616 976.295 57.688 978.599 61.624C980.903 65.512 982.055 69.904 982.055 74.8C982.055 79.696 980.903 84.112 978.599 88.048C976.295 91.936 973.103 95.008 969.023 97.264C964.943 99.472 960.383 100.576 955.343 100.576ZM955.343 94.168C959.039 94.168 962.351 93.328 965.279 91.648C968.255 89.968 970.583 87.664 972.263 84.736C973.991 81.76 974.855 78.448 974.855 74.8C974.855 71.152 973.991 67.864 972.263 64.936C970.583 61.96 968.255 59.632 965.279 57.952C962.351 56.272 959.039 55.432 955.343 55.432C951.647 55.432 948.287 56.272 945.263 57.952C942.287 59.632 939.935 61.96 938.207 64.936C936.527 67.864 935.687 71.152 935.687 74.8C935.687 78.448 936.527 81.76 938.207 84.736C939.935 87.664 942.287 89.968 945.263 91.648C948.287 93.328 951.647 94.168 955.343 94.168ZM1039.79 100L1039.72 63.28L1021.5 93.88H1018.19L999.972 63.496V100H993.06V49.6H998.964L1019.99 85.024L1040.72 49.6H1046.63L1046.7 100H1039.79ZM1061.83 49.6H1069.03V100H1061.83V49.6ZM1084.11 49.6H1105.35C1110.68 49.6 1115.41 50.656 1119.54 52.768C1123.67 54.88 1126.86 57.856 1129.11 61.696C1131.42 65.488 1132.57 69.856 1132.57 74.8C1132.57 79.744 1131.42 84.136 1129.11 87.976C1126.86 91.768 1123.67 94.72 1119.54 96.832C1115.41 98.944 1110.68 100 1105.35 100H1084.11V49.6ZM1104.92 93.736C1109 93.736 1112.58 92.944 1115.65 91.36C1118.77 89.776 1121.17 87.568 1122.85 84.736C1124.53 81.856 1125.37 78.544 1125.37 74.8C1125.37 71.056 1124.53 67.768 1122.85 64.936C1121.17 62.056 1118.77 59.824 1115.65 58.24C1112.58 56.656 1109 55.864 1104.92 55.864H1091.31V93.736H1104.92ZM1175.01 87.4H1148.22L1142.68 100H1135.26L1158.09 49.6H1165.22L1188.11 100H1180.55L1175.01 87.4ZM1172.49 81.64L1161.62 56.944L1150.74 81.64H1172.49ZM1210.32 100.576C1206.53 100.576 1202.85 100 1199.3 98.848C1195.8 97.648 1193.04 96.112 1191.02 94.24L1193.69 88.624C1195.61 90.352 1198.05 91.768 1201.03 92.872C1204.05 93.928 1207.15 94.456 1210.32 94.456C1214.49 94.456 1217.61 93.76 1219.68 92.368C1221.74 90.928 1222.77 89.032 1222.77 86.68C1222.77 84.952 1222.2 83.56 1221.05 82.504C1219.94 81.4 1218.55 80.56 1216.87 79.984C1215.24 79.408 1212.91 78.76 1209.89 78.04C1206.09 77.128 1203.02 76.216 1200.67 75.304C1198.37 74.392 1196.37 73 1194.69 71.128C1193.06 69.208 1192.25 66.64 1192.25 63.424C1192.25 60.736 1192.94 58.312 1194.33 56.152C1195.77 53.992 1197.93 52.264 1200.81 50.968C1203.69 49.672 1207.27 49.024 1211.54 49.024C1214.52 49.024 1217.45 49.408 1220.33 50.176C1223.21 50.944 1225.68 52.048 1227.74 53.488L1225.37 59.248C1223.25 57.904 1221 56.896 1218.6 56.224C1216.2 55.504 1213.85 55.144 1211.54 55.144C1207.46 55.144 1204.39 55.888 1202.33 57.376C1200.31 58.864 1199.3 60.784 1199.3 63.136C1199.3 64.864 1199.88 66.28 1201.03 67.384C1202.18 68.44 1203.6 69.28 1205.28 69.904C1207.01 70.48 1209.33 71.104 1212.26 71.776C1216.05 72.688 1219.1 73.6 1221.41 74.512C1223.71 75.424 1225.68 76.816 1227.31 78.688C1228.99 80.56 1229.83 83.08 1229.83 86.248C1229.83 88.888 1229.11 91.312 1227.67 93.52C1226.23 95.68 1224.05 97.408 1221.12 98.704C1218.19 99.952 1214.59 100.576 1210.32 100.576Z" fill="white"/>
</svg>
