<svg width="29" height="29" viewBox="0 0 29 29" fill="none" xmlns="http://www.w3.org/2000/svg">
<path fill-rule="evenodd" clip-rule="evenodd" d="M14.5031 2.60421C16.4338 2.52982 18.3673 2.58161 20.2913 2.75926C21.2246 2.74752 22.1519 2.91109 23.0249 3.24148C24.2293 3.8027 25.1973 4.77066 25.7585 5.97509C26.0881 6.85035 26.2501 7.77977 26.2361 8.71491C26.2361 10.1616 26.3911 10.6438 26.3911 14.5031C26.4655 16.4338 26.4137 18.3673 26.2361 20.2913C26.2478 21.2246 26.0843 22.1519 25.7539 23.0249C25.1927 24.2293 24.2247 25.1973 23.0203 25.7585C22.1473 26.0889 21.22 26.2525 20.2866 26.2407C18.84 26.2407 18.3578 26.3958 14.4984 26.3958C12.5692 26.4684 10.6372 26.4151 8.71491 26.2361C7.78156 26.2478 6.85429 26.0843 5.9813 25.7539C4.7779 25.1942 3.81008 24.2286 3.24768 23.0265C2.91729 22.1535 2.75372 21.2262 2.76546 20.2928C2.76546 18.8462 2.61041 18.364 2.61041 14.5047C2.53602 12.5739 2.58781 10.6404 2.76546 8.71646C2.75372 7.78311 2.91729 6.85585 3.24768 5.98285C3.52828 5.38603 3.90901 4.84167 4.37338 4.37338C4.75043 3.81097 5.32382 3.40954 5.9813 3.24768C6.85429 2.9173 7.78156 2.75372 8.71491 2.76546C10.6389 2.58782 12.5724 2.53602 14.5031 2.61041V2.60421ZM14.5031 0.0318498C12.5207 -0.0405862 10.5358 0.0112001 8.55985 0.186904C7.34911 0.185514 6.14833 0.4057 5.01685 0.836583C4.04115 1.15486 3.15806 1.70686 2.4445 2.4445C1.70685 3.15807 1.15486 4.04116 0.836581 5.01686C0.328546 6.12539 0.105237 7.34319 0.186902 8.55986C0.0111975 10.5358 -0.0405887 12.5207 0.0318473 14.5031C-0.0408481 16.4875 0.0109384 18.4746 0.186902 20.4525C0.184287 21.6608 0.402356 22.8594 0.830379 23.9893C1.14865 24.965 1.70065 25.8481 2.4383 26.5617C3.15186 27.2993 4.03495 27.8513 5.01065 28.1696C6.14058 28.5976 7.33917 28.8157 8.54745 28.8131C10.5254 28.9891 12.5125 29.0408 14.4969 28.9682C16.4813 29.0408 18.4684 28.9891 20.4463 28.8131C21.6546 28.8157 22.8532 28.5976 23.9831 28.1696C24.9534 27.8361 25.8347 27.2856 26.5602 26.5602C27.2856 25.8347 27.8361 24.9534 28.1696 23.9831C28.5976 22.8532 28.8157 21.6546 28.8131 20.4463C28.8131 18.8384 28.9682 18.3562 28.9682 14.4969C29.0408 12.5125 28.9891 10.5254 28.8131 8.54745C28.8157 7.33918 28.5976 6.14058 28.1696 5.01065C27.8513 4.03495 27.2993 3.15186 26.5617 2.4383C25.8479 1.70312 24.9654 1.1533 23.9909 0.836583C22.8609 0.406258 21.6617 0.186081 20.4525 0.186904C18.4746 0.0109368 16.4875 -0.0408496 14.5031 0.0318498ZM14.5031 7.10699C13.5274 7.09107 12.5585 7.27149 11.654 7.63754C10.7495 8.00359 9.92777 8.54779 9.23778 9.23778C8.54779 9.92777 8.00359 10.7495 7.63754 11.654C7.27149 12.5585 7.09106 13.5274 7.10699 14.5031C7.10699 15.9659 7.54077 17.3959 8.35346 18.6122C9.16616 19.8284 10.3213 20.7764 11.6727 21.3362C13.0242 21.896 14.5113 22.0425 15.946 21.7571C17.3807 21.4717 18.6986 20.7673 19.7329 19.7329C20.7673 18.6986 21.4717 17.3807 21.7571 15.946C22.0425 14.5113 21.896 13.0242 21.3362 11.6727C20.7764 10.3213 19.8284 9.16616 18.6122 8.35346C17.3959 7.54077 15.9659 7.10699 14.5031 7.10699ZM14.5031 19.3269C13.8665 19.3384 13.234 19.2215 12.6435 18.9832C12.0531 18.7449 11.5167 18.39 11.0664 17.9398C10.6162 17.4895 10.2613 16.9531 10.023 16.3627C9.78465 15.7722 9.66778 15.1397 9.67935 14.5031C9.66778 13.8665 9.78465 13.234 10.023 12.6435C10.2613 12.0531 10.6162 11.5167 11.0664 11.0664C11.5167 10.6162 12.0531 10.2613 12.6435 10.023C13.234 9.78466 13.8665 9.66779 14.5031 9.67935C15.1397 9.66779 15.7722 9.78466 16.3627 10.023C16.9531 10.2613 17.4895 10.6162 17.9398 11.0664C18.39 11.5167 18.7449 12.0531 18.9832 12.6435C19.2215 13.234 19.3384 13.8665 19.3269 14.5031C19.3384 15.1397 19.2215 15.7722 18.9832 16.3627C18.7449 16.9531 18.39 17.4895 17.9398 17.9398C17.4895 18.39 16.9531 18.7449 16.3627 18.9832C15.7722 19.2215 15.1397 19.3384 14.5031 19.3269ZM22.2217 5.01531C21.8718 5.01531 21.5298 5.11907 21.2388 5.31347C20.9479 5.50787 20.7211 5.78417 20.5872 6.10745C20.4533 6.43072 20.4183 6.78644 20.4865 7.12963C20.5548 7.47282 20.7233 7.78805 20.9707 8.03548C21.2182 8.2829 21.5334 8.4514 21.8766 8.51966C22.2198 8.58792 22.5755 8.55289 22.8988 8.41898C23.222 8.28508 23.4983 8.05832 23.6927 7.76738C23.8871 7.47644 23.9909 7.13439 23.9909 6.78448C23.9868 6.31652 23.7992 5.86887 23.4682 5.53796C23.1373 5.20705 22.6897 5.01935 22.2217 5.01531Z" fill="white"/>
</svg>
