<svg width="41" height="37" viewBox="0 0 41 37" fill="none" xmlns="http://www.w3.org/2000/svg">
<path d="M32.3775 16.96H8.55271C6.67299 16.96 5.14917 18.2761 5.14917 19.8997V30.189C5.14917 31.8126 6.67299 33.1288 8.55271 33.1288H32.3775C34.2572 33.1288 35.781 31.8126 35.781 30.189V19.8997C35.781 18.2761 34.2572 16.96 32.3775 16.96Z" stroke="white" stroke-linecap="round" stroke-linejoin="round"/>
<path d="M11.9565 16.96V11.0804C11.9565 9.13122 12.853 7.26186 14.4487 5.88357C16.0444 4.50527 18.2087 3.73096 20.4654 3.73096C22.7221 3.73096 24.8863 4.50527 26.482 5.88357C28.0778 7.26186 28.9742 9.13122 28.9742 11.0804V16.96" stroke="white" stroke-linecap="round" stroke-linejoin="round"/>
</svg>
