<svg width="100" height="104" viewBox="0 0 100 104" fill="none" xmlns="http://www.w3.org/2000/svg">
<path d="M86.1105 8.39086H77.7789V0H72.2211V8.39086H27.7789V0H22.2211V8.39086H13.8895C6.22918 8.39086 0 14.6644 0 22.3791V89.5217C0 97.2365 6.22918 103.51 13.8895 103.51H86.1105C93.7708 103.51 100 97.2365 100 89.5217V36.3674V30.7752V22.3791C100 14.6696 93.7708 8.39086 86.1105 8.39086ZM94.4473 89.5217C94.4473 94.1495 90.7109 97.9126 86.1157 97.9126H13.8895C9.29434 97.9126 5.55787 94.1495 5.55787 89.5217V36.3674H94.4473V89.5217ZM94.4473 30.7752H5.55267V22.3791C5.55267 17.7513 9.28913 13.9883 13.8843 13.9883H22.2159V19.5857H27.7789V13.9883H72.2263V19.5857H77.7841V13.9883H86.1157C90.7109 13.9883 94.4473 17.7513 94.4473 22.3791V30.7752Z" fill="white"/>
<path d="M44.4419 64.3445H55.5524C58.6176 64.3445 61.1103 61.834 61.1103 58.747V47.5575C61.1103 44.4705 58.6176 41.9601 55.5524 41.9601H44.4419C41.3767 41.9601 38.884 44.4705 38.884 47.5575V58.747C38.8892 61.834 41.382 64.3445 44.4419 64.3445ZM44.4419 47.5575H55.5524L55.5576 58.747H44.4419V47.5575Z" fill="white"/>
<path d="M72.2214 64.3445H83.332C86.3971 64.3445 88.8898 61.834 88.8898 58.747V47.5575C88.8898 44.4705 86.3971 41.9601 83.332 41.9601H72.2214C69.1563 41.9601 66.6636 44.4705 66.6636 47.5575V58.747C66.6688 61.834 69.1615 64.3445 72.2214 64.3445ZM72.2214 47.5575H83.332L83.3372 58.747H72.2214V47.5575Z" fill="white"/>
<path d="M16.6685 92.3204H27.779C30.8442 92.3204 33.3369 89.81 33.3369 86.723V75.5334C33.3369 72.4465 30.8442 69.936 27.779 69.936H16.6685C13.6033 69.936 11.1106 72.4465 11.1106 75.5334V86.723C11.1106 89.81 13.6033 92.3204 16.6685 92.3204ZM16.6685 75.5334H27.779L27.7842 86.723H16.6685V75.5334Z" fill="white"/>
<path d="M44.4419 92.3204H55.5524C58.6176 92.3204 61.1103 89.81 61.1103 86.723V75.5334C61.1103 72.4465 58.6176 69.936 55.5524 69.936H44.4419C41.3767 69.936 38.884 72.4465 38.884 75.5334V86.723C38.8892 89.81 41.382 92.3204 44.4419 92.3204ZM44.4419 75.5334H55.5524L55.5576 86.723H44.4419V75.5334Z" fill="white"/>
<path d="M72.2214 92.3204H83.332C86.3971 92.3204 88.8898 89.81 88.8898 86.723V75.5334C88.8898 72.4465 86.3971 69.936 83.332 69.936H72.2214C69.1563 69.936 66.6636 72.4465 66.6636 75.5334V86.723C66.6688 89.81 69.1615 92.3204 72.2214 92.3204ZM72.2214 75.5334H83.332L83.3372 86.723H72.2214V75.5334Z" fill="white"/>
</svg>
