<svg width="30" height="24" viewBox="0 0 30 24" fill="none" xmlns="http://www.w3.org/2000/svg">
<path fill-rule="evenodd" clip-rule="evenodd" d="M9.50294 23.9869C11.8065 24.0074 14.0911 23.5752 16.2233 22.7155C18.3555 21.8558 20.2927 20.586 21.9216 18.98C23.5505 17.374 24.8385 15.4642 25.7105 13.362C26.5824 11.2598 27.0208 9.0074 27 6.73632V5.91411C28.1644 5.04039 29.1775 3.98643 30 2.7932C28.8825 3.27219 27.7058 3.60352 26.5003 3.77858C27.7395 3.01132 28.679 1.85334 29.166 0.492918C27.962 1.15368 26.6729 1.65088 25.3337 1.97099C24.77 1.34475 24.0768 0.844832 23.3007 0.504887C22.5246 0.164942 21.6837 -0.0071393 20.8345 0.000226883C19.2074 0.0259371 17.6543 0.674618 16.5037 1.80906C15.353 2.9435 14.6951 4.47473 14.669 6.07887C14.6291 6.52342 14.6838 6.97129 14.8297 7.39377C12.3778 7.27699 9.97946 6.64498 7.79544 5.54008C5.61141 4.43517 3.69209 2.88288 2.16604 0.987194C1.61752 1.9383 1.33007 3.014 1.33208 4.1081C1.35408 5.10108 1.60564 6.07601 2.0676 6.95864C2.52956 7.84127 3.18974 8.60832 3.99786 9.20136C2.99613 9.18097 2.01812 8.89712 1.16497 8.37915C1.16334 9.78615 1.66295 11.149 2.57659 12.2299C3.49024 13.3108 4.75988 14.041 6.1639 14.293C5.62097 14.4352 5.05807 14.4887 4.49759 14.4515C4.10177 14.4797 3.70434 14.4257 3.33101 14.293C3.73761 15.5117 4.51624 16.5768 5.56036 17.3425C6.60448 18.1081 7.86307 18.537 9.1639 18.5704C6.97356 20.2571 4.2784 21.1812 1.49919 21.1986C0.994032 21.2272 0.487538 21.1737 0 21.0402C2.75741 23.0146 6.09068 24.0526 9.49813 23.9979" fill="white"/>
</svg>
